<?xml version="1.0" encoding="UTF-8"?>
<svg width="15px" height="15px" viewBox="0 0 15 15" version="1.1" xmlns="http://www.w3.org/2000/svg" xmlns:xlink="http://www.w3.org/1999/xlink">
    <title>Ekstern lenke</title>
    <g  stroke="none" stroke-width="1" fill="none" fill-rule="evenodd">
        <g  transform="translate(-34.000000, -3.000000)" fill="#0067C5">
            <g  transform="translate(33.000000, 3.000000)">
                <path d="M14.2692396,1.29388324 L9.00720927,1.30529763 C8.8360014,1.30566901 8.69690893,1.16717867 8.69653755,0.995970803 C8.69616617,0.824762932 8.8346565,0.685670464 9.00586437,0.68529908 L14.9605678,0.672382153 C15.0638345,0.651042729 15.1664879,0.691283524 15.2380983,0.762674663 L15.2388189,0.763395149 C15.3102456,0.835041164 15.3504863,0.937694604 15.3291469,1.04096125 L15.31623,6.9956647 C15.3158586,7.16687257 15.1767661,7.30536291 15.0055583,7.30499153 C14.8343504,7.30462014 14.6958601,7.16552768 14.6962315,6.9943198 L14.7076458,1.73228945 L7.25479198,9.18514331 C6.96252117,9.47741411 6.52411496,9.0390079 6.81638577,8.7467371 L14.2692396,1.29388324 Z M8.05333333,3.66666667 C8.23742825,3.66666667 8.38666667,3.81590508 8.38666667,4 C8.38666667,4.18409492 8.23742825,4.33333333 8.05333333,4.33333333 L3.33333333,4.33333333 C2.41285875,4.33333333 1.66666667,5.07952542 1.66666667,6 L1.66666667,12.6552092 C1.66666667,13.5756837 2.41285875,14.3218758 3.33333333,14.3218758 L10,14.3218758 C10.9204746,14.3218758 11.6666667,13.5756837 11.6666667,12.6552092 L11.6666667,7.99427124 C11.6666667,7.81017633 11.8159051,7.66093791 12,7.66093791 C12.1840949,7.66093791 12.3333333,7.81017633 12.3333333,7.99427124 L12.3333333,12.6552092 C12.3333333,13.9438736 11.2886644,14.9885425 10,14.9885425 L3.33333333,14.9885425 C2.04466892,14.9885425 1,13.9438736 1,12.6552092 L1,6 C1,4.71133558 2.04466892,3.66666667 3.33333333,3.66666667 L8.05333333,3.66666667 Z" ></path>
            </g>
        </g>
    </g>
</svg>