<svg xmlns="http://www.w3.org/2000/svg" xmlns:xlink="http://www.w3.org/1999/xlink" width="575" height="204" viewBox="0 0 575 204">
    <defs>
        <path id="a" d="M10.832 1.245l7.53 32.84c.195.853-.377 1.694-1.278 1.88a1.76 1.76 0 0 1-.354.035H1.67C.748 36 0 35.293 0 34.42c0-.113.013-.225.038-.335l7.53-32.84C7.764.393 8.653-.149 9.554.036c.64.132 1.139.604 1.278 1.21z"/>
        <path id="c" d="M11.915 1.37l8.283 36.123c.215.938-.414 1.864-1.406 2.067-.128.027-.258.04-.39.04H1.838C.822 39.6 0 38.822 0 37.862c0-.124.014-.248.042-.369L8.325 1.37C8.54.432 9.518-.164 10.509.04c.704.144 1.253.664 1.406 1.33z"/>
    </defs>
    <g fill="none" fill-rule="evenodd">
        <g fill-rule="nonzero">
            <path fill="#669DB4" d="M575 150.196V204H348L497.986 46 575 150.196z"/>
            <path fill="#FFF" d="M573.441 147.15l.11.561-39.358-35.926-3.718 26.631-13.823-21.824-15.043 15.734-20.733-12.553-42.982 31.56 24.158-46.395-24.748 4.682L497.986 46z"/>
        </g>
        <path fill="#8A3B2C" d="M84.74 189.982l-56.566 9.974-5.742-32.56L79 157.422z"/>
        <path fill="#96928F" d="M84.74 189.982l-56.566 9.974-.838-4.748 56.567-9.974z"/>
        <path fill="#8A3B2C" d="M22.432 167.396l8.746-13.574 16.428-9.05 18.532 2.886 12.86 9.764z"/>
        <path fill="#3E3832" d="M68.874 192.78l-23.454 4.136-3.35-18.994 23.455-4.135z"/>
        <path fill="#FFF" fill-rule="nonzero" d="M65.507 173.802l3.347 18.981.71-.125-3.469-19.671-24.834 4.378 3.469 19.672.71-.125-3.348-18.981z"/>
        <path fill="#BC3C26" d="M62.02 166.011l-19.315 3.406-1.794-10.175 19.315-3.406z"/>
        <path fill="#FFF" fill-rule="nonzero" d="M62.71 165.89l-1.914-10.854-20.695 3.65 1.914 10.853 20.695-3.65zm-.833-.553l-19.268 3.398-1.675-9.497 19.268-3.397 1.675 9.496z"/>
        <path fill="#FFF" fill-rule="nonzero" d="M52.113 166.302l-11.502-7.706-.424.579 11.8 7.906.51-.09 8.385-11.465-.596-.4z"/>
        <path fill="#FFF" fill-rule="nonzero" d="M62.165 165.781l.425-.57-11.767-7.717-.51.09-8.418 11.277.595.39 8.205-10.992z"/>
        <path fill="#593A32" fill-rule="nonzero" d="M65.622 148.445l13.47 10.36 1.282-1.653-13.891-10.684-19.116-3.052-16.92 9.406-9.399 14.79 1.77 1.115 9.114-14.342 15.818-8.794z"/>
        <path fill="#FFF" fill-rule="nonzero" d="M51.259 157.418l-1.38.243 1.674 9.497 1.38-.244z"/>
        <g fill-rule="nonzero">
            <path fill="#CDE7D8" d="M-1 204.172h373.655c-14.606-2.183-41.088-5.08-79.448-8.69-57.54-5.414-84.952-14.896-144-14.896-39.365 0-89.434 7.862-150.207 23.586z"/>
            <path fill="#6AB889" d="M198.862 204.172H575c-30.62-21.639-83.172-36.62-157.655-44.943-74.483-8.322-147.31 6.659-218.483 44.943z"/>
        </g>
        <g fill="#FFF">
            <path d="M552.945 61.412a7.501 7.501 0 0 1-14.848.296 4.501 4.501 0 0 1-5.322-6.733c-5.46-.372-9.775-4.92-9.775-10.475 0-5.798 4.702-10.5 10.5-10.5 3.774 0 7.083 1.991 8.933 4.98a7.503 7.503 0 0 1 7.068-4.98 7.499 7.499 0 0 1 7.474 8.11A10.59 10.59 0 0 1 558.5 42c5.8 0 10.5 4.7 10.5 10.5S564.3 63 558.5 63c-2.04 0-3.944-.581-5.555-1.588z"/>
        </g>
        <g fill="#FFF">
            <path d="M478.084 31.85a6 6 0 0 1-9.178 7.727c-2.106 2.235-5.049 3.623-8.305 3.623-6.406 0-11.601-5.372-11.601-12 0-6.626 5.195-12 11.6-12 2.18 0 4.218.622 5.96 1.703A8.4 8.4 0 0 1 474.2 16a8.4 8.4 0 0 1 3.884 15.85z"/>
        </g>
        <g fill="#FFF">
            <path d="M541.835 6.358a4.2 4.2 0 0 0-7.887-2.885c-1.92-.967-4.189-1.175-6.33-.395-4.215 1.533-6.345 6.31-4.759 10.67 1.587 4.359 6.29 6.65 10.504 5.116a7.878 7.878 0 0 0 3.512-2.547 5.88 5.88 0 1 0 4.96-9.96z"/>
        </g>
        <g>
            <g fill-rule="nonzero" transform="rotate(-8 1318.455 -1556.727)">
                <path fill="#E7E9E9" d="M1.243 6.043L7.836 1.12a1.618 1.618 0 0 1 2.328.423l2.392 3.779a1.572 1.572 0 0 1-.635 2.25L4.55 11.266a3.155 3.155 0 0 1-4.073-1.119 3.065 3.065 0 0 1 .767-4.103z"/>
                <path fill="#E7E9E9" d="M12.08 4.528l3.735 5.314a3.2 3.2 0 0 1-1.018 4.611l-.87.502a3.2 3.2 0 0 1-4.502-1.424L6.691 7.639a3.124 3.124 0 0 1 5.389-3.111z"/>
                <path fill="#E7E9E9" d="M14.4 10H24a4.8 4.8 0 0 1 0 9.6h-9.6a4.8 4.8 0 0 1 0-9.6z"/>
                <path fill="#E7E9E9" d="M12 18h3.2v6.4H12zM22.8 18H26v6.4h-3.2z"/>
                <circle cx="6.8" cy="2" r="2" fill="#FFF"/>
                <circle cx="10" cy="2" r="2" fill="#FFF"/>
                <circle cx="12" cy="4" r="1.6" fill="#FFF"/>
                <circle cx="7.2" cy="10" r="2" fill="#FFF"/>
                <circle cx="26.8" cy="16" r="2" fill="#FFF"/>
                <circle cx="24.8" cy="17.2" r="2.4" fill="#FFF"/>
                <circle cx="10" cy="14.8" r="2" fill="#FFF"/>
                <circle cx="11.2" cy="18" r="2.4" fill="#FFF"/>
                <circle cx="16.8" cy="18.8" r="2.4" fill="#FFF"/>
                <circle cx="21.2" cy="18.4" r="2" fill="#FFF"/>
                <circle cx="21" cy="18.6" r="2.2" fill="#FFF"/>
                <circle cx="30" cy="13.6" r="2" fill="#FFF"/>
                <circle cx="11.2" cy="7.6" r="4" fill="#FFF"/>
                <circle cx="14.8" cy="15.2" r="4" fill="#FFF"/>
                <circle cx="20.8" cy="14.4" r="4" fill="#FFF"/>
                <circle cx="26" cy="12" r="3.2" fill="#FFF"/>
                <circle cx="15.6" cy="10.8" r="3.2" fill="#FFF"/>
                <circle cx="11.2" cy="12.4" r="3.2" fill="#FFF"/>
                <circle cx="21.6" cy="10" r="3.6" fill="#FFF"/>
                <circle cx="4.8" cy="3.6" r="1.6" fill="#FFF"/>
                <ellipse cx="5.6" cy="5.2" fill="#59514B" rx="1" ry="1.2"/>
                <ellipse cx="1.381" cy="7.901" fill="#59514B" rx="1" ry="1" transform="rotate(20 1.381 7.9)"/>
            </g>
        </g>
        <g>
            <g fill-rule="nonzero" transform="rotate(-8 1273.952 -1993.247)">
                <path fill="#E7E9E9" d="M1.002 4.63L6.32.858c.57-.405 1.381-.3 1.812.235.023.029.045.059.065.09l1.93 2.894c.378.568.194 1.316-.412 1.671a1.32 1.32 0 0 1-.1.053L3.667 8.63c-1.166.555-2.591.183-3.284-.857-.693-1.04-.425-2.404.618-3.144z"/>
                <path fill="#E7E9E9" d="M9.741 3.469l3.012 4.07c.82 1.108.539 2.637-.627 3.416a2.602 2.602 0 0 1-.194.117l-.7.384c-1.235.677-2.813.276-3.526-.897a2.41 2.41 0 0 1-.105-.193L5.395 5.852c-.549-1.124-.104-2.46 1.026-3.08 1.13-.62 2.57-.317 3.32.697z"/>
                <path fill="#E7E9E9" d="M11.612 7.66h7.742c2.137 0 3.87 1.647 3.87 3.678 0 2.03-1.733 3.677-3.87 3.677h-7.742c-2.138 0-3.87-1.646-3.87-3.677 0-2.03 1.732-3.677 3.87-3.677z"/>
                <path fill="#E7E9E9" d="M9.677 13.789h2.58v4.903h-2.58zM18.386 13.789h2.58v4.903h-2.58z"/>
                <ellipse cx="5.484" cy="1.532" fill="#FFF" rx="1.613" ry="1.532"/>
                <ellipse cx="8.064" cy="1.532" fill="#FFF" rx="1.613" ry="1.532"/>
                <ellipse cx="9.677" cy="3.064" fill="#FFF" rx="1.29" ry="1.226"/>
                <ellipse cx="5.806" cy="7.661" fill="#FFF" rx="1.613" ry="1.532"/>
                <ellipse cx="21.612" cy="12.257" fill="#FFF" rx="1.613" ry="1.532"/>
                <ellipse cx="19.999" cy="13.177" fill="#FFF" rx="1.935" ry="1.839"/>
                <ellipse cx="8.064" cy="11.338" fill="#FFF" rx="1.613" ry="1.532"/>
                <ellipse cx="9.032" cy="13.789" fill="#FFF" rx="1.935" ry="1.839"/>
                <ellipse cx="13.548" cy="14.402" fill="#FFF" rx="1.935" ry="1.839"/>
                <ellipse cx="17.096" cy="14.096" fill="#FFF" rx="1.613" ry="1.532"/>
                <ellipse cx="16.934" cy="14.249" fill="#FFF" rx="1.774" ry="1.685"/>
                <ellipse cx="24.192" cy="10.419" fill="#FFF" rx="1.613" ry="1.532"/>
                <ellipse cx="9.032" cy="5.822" fill="#FFF" rx="3.226" ry="3.064"/>
                <ellipse cx="11.935" cy="11.644" fill="#FFF" rx="3.226" ry="3.064"/>
                <ellipse cx="16.773" cy="11.032" fill="#FFF" rx="3.226" ry="3.064"/>
                <ellipse cx="20.966" cy="9.193" fill="#FFF" rx="2.58" ry="2.451"/>
                <ellipse cx="12.58" cy="8.274" fill="#FFF" rx="2.58" ry="2.451"/>
                <ellipse cx="9.032" cy="9.499" fill="#FFF" rx="2.58" ry="2.451"/>
                <ellipse cx="17.418" cy="7.661" fill="#FFF" rx="2.903" ry="2.758"/>
                <ellipse cx="3.871" cy="2.758" fill="#FFF" rx="1.29" ry="1.226"/>
                <ellipse cx="4.516" cy="3.984" fill="#59514B" rx="1" ry="1"/>
                <circle cx="1.114" cy="6.053" r="1" fill="#59514B" transform="rotate(20 1.114 6.053)"/>
            </g>
        </g>
        <g>
            <g fill-rule="nonzero" transform="rotate(-6 1764.856 -2498.035)">
                <path fill="#E7E9E9" d="M1.293 6.284l6.856-5.119a1.683 1.683 0 0 1 2.422.441l2.487 3.93a1.634 1.634 0 0 1-.66 2.34l-7.667 3.84c-1.504.753-3.342.248-4.236-1.164a3.188 3.188 0 0 1 .798-4.268z"/>
                <path fill="#E7E9E9" d="M12.563 4.709l3.884 5.526a3.328 3.328 0 0 1-1.058 4.796l-.904.522a3.328 3.328 0 0 1-4.683-1.481L6.958 7.945a3.249 3.249 0 0 1 5.605-3.236z"/>
                <path fill="#E7E9E9" d="M14.976 10.4h9.984a4.992 4.992 0 0 1 0 9.984h-9.984a4.992 4.992 0 0 1 0-9.984z"/>
                <path fill="#E7E9E9" d="M12.48 18.72h3.328v6.656H12.48zM23.712 18.72h3.328v6.656h-3.328z"/>
                <circle cx="7.072" cy="2.08" r="2.08" fill="#FFF"/>
                <circle cx="10.4" cy="2.08" r="2.08" fill="#FFF"/>
                <circle cx="12.48" cy="4.16" r="1.664" fill="#FFF"/>
                <circle cx="7.488" cy="10.4" r="2.08" fill="#FFF"/>
                <circle cx="27.872" cy="16.64" r="2.08" fill="#FFF"/>
                <circle cx="25.792" cy="17.888" r="2.496" fill="#FFF"/>
                <circle cx="10.4" cy="15.392" r="2.08" fill="#FFF"/>
                <circle cx="11.648" cy="18.72" r="2.496" fill="#FFF"/>
                <circle cx="17.472" cy="19.552" r="2.496" fill="#FFF"/>
                <circle cx="22.048" cy="19.136" r="2.08" fill="#FFF"/>
                <circle cx="21.84" cy="19.344" r="2.288" fill="#FFF"/>
                <circle cx="31.2" cy="14.144" r="2.08" fill="#FFF"/>
                <circle cx="11.648" cy="7.904" r="4.16" fill="#FFF"/>
                <circle cx="15.392" cy="15.808" r="4.16" fill="#FFF"/>
                <circle cx="21.632" cy="14.976" r="4.16" fill="#FFF"/>
                <circle cx="27.04" cy="12.48" r="3.328" fill="#FFF"/>
                <circle cx="16.224" cy="11.232" r="3.328" fill="#FFF"/>
                <circle cx="11.648" cy="12.896" r="3.328" fill="#FFF"/>
                <circle cx="22.464" cy="10.4" r="3.744" fill="#FFF"/>
                <circle cx="4.992" cy="3.744" r="1.664" fill="#FFF"/>
                <ellipse cx="5.824" cy="5.408" fill="#59514B" rx="1" ry="1.248"/>
                <ellipse cx="1.436" cy="8.217" fill="#59514B" rx="1" ry="1" transform="rotate(20 1.436 8.217)"/>
            </g>
        </g>
        <g transform="translate(503 131)">
            <path fill="#59514B" fill-rule="nonzero" d="M8 35.2h2.4l.8 17.6h-4z"/>
            <mask id="b" fill="#fff">
                <use xlink:href="#a"/>
            </mask>
            <use fill="#117938" fill-rule="nonzero" xlink:href="#a"/>
            <g fill="#117938" mask="url(#b)">
                <path d="M-35.2 71.2h89.6v-89.6h-89.6z"/>
            </g>
        </g>
        <g transform="translate(486 136)">
            <path fill="#59514B" fill-rule="nonzero" d="M8.8 38.72h2.64l.88 19.36h-4.4z"/>
            <mask id="d" fill="#fff">
                <use xlink:href="#c"/>
            </mask>
            <use fill="#117938" fill-rule="nonzero" xlink:href="#c"/>
            <g fill="#117938" mask="url(#d)">
                <path d="M-38.72 78.32h98.56v-98.56h-98.56z"/>
            </g>
        </g>
        <g fill="#FFBD66">
            <g fill-rule="nonzero">
                <path d="M123.335 172.544l.997-.07 1.376 19.668-.998.07z"/>
                <path d="M123.47 172.96c.326-.404.473-.84.44-1.307-.033-.467-.239-.877-.617-1.232-.326.404-.473.84-.44 1.306.032.468.238.878.617 1.232zM123.518 174.257c.566-.058.987-.277 1.262-.656.275-.378.353-.846.233-1.402-.566.057-.987.276-1.262.655s-.353.846-.233 1.403z"/>
                <path d="M123.669 174.246c-.569.022-1.016-.136-1.341-.473-.326-.337-.468-.79-.427-1.357.57-.021 1.016.136 1.342.473.325.337.467.79.426 1.357zM123.666 176.372c.566-.058.987-.277 1.262-.656s.353-.846.233-1.403c-.566.058-.987.277-1.262.656s-.353.846-.233 1.403z"/>
                <path d="M123.817 176.361c-.57.021-1.016-.136-1.342-.473-.325-.337-.467-.79-.426-1.357.57-.021 1.016.136 1.341.473.326.337.468.79.427 1.357zM123.814 178.486c.566-.058.986-.276 1.262-.655.275-.379.353-.846.233-1.403-.566.058-.987.277-1.262.655-.276.38-.353.847-.233 1.403z"/>
                <path d="M123.964 178.476c-.568.021-1.015-.136-1.34-.473-.326-.337-.468-.79-.427-1.357.569-.022 1.016.136 1.341.473.326.337.468.79.426 1.357zM123.961 180.601c.567-.058.987-.276 1.263-.655.275-.379.353-.847.233-1.403-.566.058-.987.276-1.262.655-.276.38-.353.847-.234 1.403z"/>
                <path d="M124.112 180.59c-.568.022-1.015-.136-1.34-.473-.326-.336-.468-.789-.427-1.356.569-.022 1.016.136 1.341.473.326.337.468.789.426 1.357zM124.11 182.716c.566-.058.986-.276 1.262-.655.275-.38.353-.847.233-1.403-.567.058-.987.276-1.263.655-.275.379-.353.847-.233 1.403z"/>
                <path d="M124.26 182.705c-.569.022-1.016-.136-1.34-.473-.326-.337-.468-.789-.427-1.357.569-.02 1.016.137 1.341.474.325.337.467.789.426 1.356z"/>
            </g>
            <g fill-rule="nonzero">
                <path d="M191.17 168.015l.987.156-2.683 16.942-.988-.156z"/>
                <path d="M191.18 168.39c.28-.29.451-.636.515-1.039a1.889 1.889 0 0 0-.169-1.147c-.279.29-.45.637-.514 1.04-.064.402-.008.784.168 1.146zM190.976 169.501c.37.042.675-.075.918-.353.243-.277.376-.662.401-1.155a1.002 1.002 0 0 0-.918.353c-.243.278-.376.663-.401 1.155z"/>
                <path d="M191.073 169.516a1.002 1.002 0 0 1-.764-.619c-.145-.339-.153-.746-.024-1.222.364.074.619.28.764.62.145.338.153.746.024 1.221zM190.687 171.323c.37.042.675-.076.918-.353.243-.278.377-.663.402-1.155a1.002 1.002 0 0 0-.918.353c-.243.277-.377.662-.402 1.155z"/>
                <path d="M190.785 171.338a1.002 1.002 0 0 1-.764-.62c-.145-.338-.153-.746-.025-1.221.364.073.619.28.764.619.145.339.154.746.025 1.222zM190.399 173.144c.369.043.675-.075.918-.352.243-.278.376-.663.401-1.155a1.002 1.002 0 0 0-.918.353c-.243.277-.376.662-.401 1.154z"/>
                <path d="M190.496 173.16a1.002 1.002 0 0 1-.764-.62c-.145-.338-.153-.746-.024-1.222.364.074.619.28.764.62.145.339.153.746.024 1.222zM190.11 174.966c.37.042.675-.075.918-.353.243-.277.377-.662.401-1.155a1.002 1.002 0 0 0-.917.353c-.243.278-.377.663-.402 1.155z"/>
                <path d="M190.208 174.982a1.002 1.002 0 0 1-.764-.62c-.145-.339-.154-.746-.025-1.222.364.074.619.28.764.62.145.338.154.746.025 1.222zM189.822 176.788c.369.042.675-.075.918-.353.243-.278.376-.663.4-1.155a1.002 1.002 0 0 0-.917.353c-.243.277-.377.662-.401 1.155z"/>
                <path d="M189.92 176.803a1.002 1.002 0 0 1-.765-.619c-.145-.339-.153-.746-.024-1.222.364.073.618.28.764.619.145.339.153.746.024 1.222z"/>
            </g>
            <g fill-rule="nonzero">
                <path d="M186.646 169.045l1-.018.3 17.15-1 .018z"/>
                <path d="M186.722 169.413c.225-.335.333-.705.326-1.113a1.889 1.889 0 0 0-.365-1.1 1.889 1.889 0 0 0-.326 1.112c.007.408.129.774.365 1.1zM186.714 170.542c.37-.022.651-.191.842-.507.191-.315.256-.718.195-1.207-.371.023-.652.191-.843.507-.19.315-.256.718-.194 1.207z"/>
                <path d="M186.812 170.54a1.002 1.002 0 0 1-.86-.477c-.201-.309-.28-.708-.236-1.2.371.01.658.17.86.478.202.308.28.708.236 1.2zM186.746 172.386c.37-.022.652-.191.842-.507.191-.315.256-.718.195-1.207-.37.023-.652.192-.843.507-.19.316-.255.718-.194 1.207z"/>
                <path d="M186.844 172.384a1.002 1.002 0 0 1-.86-.477c-.201-.308-.28-.708-.236-1.2.371.01.658.17.86.478.202.309.28.708.236 1.2zM186.778 174.23c.37-.022.652-.191.843-.507.19-.315.255-.717.194-1.207-.37.023-.651.192-.842.507-.191.316-.256.718-.195 1.207z"/>
                <path d="M186.877 174.228a1.002 1.002 0 0 1-.86-.477c-.202-.308-.28-.708-.237-1.2.372.01.658.17.86.478.202.309.28.708.237 1.2zM186.81 176.074c.371-.022.652-.191.843-.507.19-.315.256-.717.194-1.207-.37.023-.651.192-.842.507-.191.316-.256.718-.195 1.207z"/>
                <path d="M186.909 176.073a1.002 1.002 0 0 1-.86-.478c-.202-.308-.28-.708-.237-1.199.372.01.658.168.86.477.202.309.281.709.237 1.2zM186.842 177.918c.371-.022.652-.19.843-.506.191-.316.256-.718.195-1.207-.371.022-.652.191-.843.506-.191.316-.256.718-.195 1.207z"/>
                <path d="M186.941 177.917a1.002 1.002 0 0 1-.86-.477c-.202-.31-.28-.709-.236-1.2.371.01.658.169.86.477.201.309.28.709.236 1.2z"/>
            </g>
            <g fill-rule="nonzero">
                <path d="M172.633 166.12h1v19.716h-1z"/>
                <path d="M172.739 166.544c.353-.38.53-.804.53-1.272 0-.468-.177-.892-.53-1.272-.354.38-.53.804-.53 1.272 0 .468.176.892.53 1.272zM172.696 167.842c.569-.019 1.004-.207 1.305-.566.3-.359.41-.82.33-1.383-.569.018-1.004.207-1.305.565-.3.36-.41.82-.33 1.384z"/>
                <path d="M172.847 167.842c-.569-.019-1.004-.207-1.305-.566-.3-.359-.41-.82-.33-1.383.569.018 1.004.207 1.305.565.3.36.41.82.33 1.384zM172.696 169.962c.569-.019 1.004-.207 1.305-.566.3-.359.41-.82.33-1.383-.569.018-1.004.207-1.305.565-.3.36-.41.82-.33 1.384z"/>
                <path d="M172.847 169.962c-.569-.019-1.004-.207-1.305-.566-.3-.359-.41-.82-.33-1.383.569.018 1.004.207 1.305.565.3.36.41.82.33 1.384zM172.696 172.082c.569-.019 1.004-.207 1.305-.566.3-.359.41-.82.33-1.383-.569.018-1.004.207-1.305.565-.3.36-.41.82-.33 1.384z"/>
                <path d="M172.847 172.082c-.569-.019-1.004-.207-1.305-.566-.3-.359-.41-.82-.33-1.383.569.018 1.004.207 1.305.565.3.36.41.82.33 1.384zM172.696 174.202c.569-.019 1.004-.207 1.305-.566.3-.359.41-.82.33-1.383-.569.018-1.004.207-1.305.565-.3.36-.41.82-.33 1.384z"/>
                <path d="M172.847 174.202c-.569-.019-1.004-.207-1.305-.566-.3-.359-.41-.82-.33-1.383.569.018 1.004.207 1.305.565.3.36.41.82.33 1.384zM172.696 176.322c.569-.019 1.004-.207 1.305-.566.3-.359.41-.82.33-1.383-.569.018-1.004.207-1.305.565-.3.36-.41.82-.33 1.384z"/>
                <path d="M172.847 176.322c-.569-.019-1.004-.207-1.305-.566-.3-.359-.41-.82-.33-1.383.569.018 1.004.207 1.305.565.3.36.41.82.33 1.384z"/>
            </g>
            <g fill-rule="nonzero">
                <path d="M168.875 172.509l.999.052-1.032 19.689-.999-.052z"/>
                <path d="M168.959 172.938c.372-.361.571-.775.596-1.243.024-.468-.13-.9-.463-1.298-.373.36-.571.775-.596 1.243-.024.467.13.9.463 1.298zM168.848 174.231c.57.012 1.013-.154 1.333-.496.32-.343.453-.798.402-1.364-.569-.012-1.013.154-1.333.496-.319.343-.453.797-.402 1.364z"/>
                <path d="M169 174.24c-.568-.049-.992-.26-1.274-.634-.282-.374-.368-.84-.258-1.399.567.048.992.26 1.274.634.281.374.367.84.257 1.398zM168.737 176.348c.57.012 1.013-.154 1.333-.496.32-.343.453-.797.402-1.364-.569-.012-1.013.154-1.333.496-.319.343-.453.797-.402 1.364z"/>
                <path d="M168.888 176.356c-.567-.048-.991-.259-1.273-.633-.282-.374-.368-.84-.258-1.399.567.049.992.26 1.274.634.281.374.367.84.257 1.398zM168.626 178.465c.57.012 1.013-.154 1.333-.496.32-.343.453-.797.402-1.364-.569-.012-1.013.154-1.332.496-.32.343-.454.798-.403 1.364z"/>
                <path d="M168.777 178.473c-.567-.048-.991-.259-1.273-.633-.282-.374-.368-.84-.258-1.398.567.048.992.259 1.274.633.281.374.367.84.257 1.398zM168.515 180.582c.57.012 1.013-.154 1.333-.496.32-.343.453-.797.402-1.364-.569-.012-1.013.154-1.332.496-.32.343-.454.798-.403 1.364z"/>
                <path d="M168.666 180.59c-.567-.048-.991-.259-1.273-.633-.282-.374-.368-.84-.258-1.398.567.048.992.259 1.274.633.282.374.367.84.257 1.398zM168.404 182.7c.57.011 1.014-.154 1.333-.497.32-.342.453-.797.402-1.364-.569-.011-1.013.154-1.332.497-.32.342-.454.797-.403 1.364z"/>
                <path d="M168.555 182.708c-.567-.049-.991-.26-1.273-.634-.282-.374-.368-.84-.258-1.398.567.048.992.259 1.274.633.282.374.367.84.257 1.399z"/>
            </g>
            <g fill-rule="nonzero">
                <path d="M164.169 168.249h1v19.716h-1z"/>
                <path d="M164.275 168.673c.353-.38.53-.804.53-1.272 0-.468-.177-.892-.53-1.272-.353.38-.53.804-.53 1.272 0 .468.177.892.53 1.272zM164.232 169.97c.569-.018 1.004-.206 1.305-.565.3-.359.411-.82.33-1.383-.569.018-1.003.207-1.305.565-.3.36-.41.82-.33 1.384z"/>
                <path d="M164.383 169.97c-.569-.018-1.003-.206-1.305-.565-.3-.359-.41-.82-.33-1.383.569.018 1.004.207 1.305.565.3.36.411.82.33 1.384zM164.232 172.09c.569-.018 1.004-.206 1.305-.565.3-.359.411-.82.33-1.383-.569.018-1.003.207-1.305.565-.3.36-.41.82-.33 1.384z"/>
                <path d="M164.383 172.09c-.569-.018-1.003-.206-1.305-.565-.3-.359-.41-.82-.33-1.383.569.018 1.004.207 1.305.565.3.36.411.82.33 1.384zM164.232 174.21c.569-.018 1.004-.206 1.305-.565.3-.359.411-.82.33-1.383-.569.018-1.003.207-1.305.565-.3.36-.41.82-.33 1.384z"/>
                <path d="M164.383 174.21c-.569-.018-1.003-.206-1.305-.565-.3-.359-.41-.82-.33-1.383.569.018 1.004.207 1.305.565.3.36.411.82.33 1.384zM164.232 176.33c.569-.018 1.004-.206 1.305-.565.3-.359.411-.82.33-1.383-.569.018-1.003.207-1.305.565-.3.36-.41.82-.33 1.384z"/>
                <path d="M164.383 176.33c-.569-.018-1.003-.206-1.305-.565-.3-.359-.41-.82-.33-1.383.569.018 1.004.207 1.305.565.3.36.411.82.33 1.384zM164.232 178.45c.569-.018 1.004-.206 1.305-.565.3-.359.411-.82.33-1.383-.569.018-1.003.207-1.305.565-.3.36-.41.82-.33 1.384z"/>
                <path d="M164.383 178.45c-.569-.018-1.003-.206-1.305-.565-.3-.359-.41-.82-.33-1.383.569.018 1.004.207 1.305.565.3.36.411.82.33 1.384z"/>
            </g>
            <g fill-rule="nonzero">
                <path d="M160.364 175.737l.997-.07 1.376 19.668-.998.07z"/>
                <path d="M160.499 176.153c.326-.404.473-.839.44-1.306-.033-.467-.239-.878-.617-1.232-.326.403-.473.839-.44 1.306.032.467.238.878.617 1.232zM160.547 177.45c.566-.058.987-.276 1.262-.655s.353-.847.233-1.403c-.566.058-.987.276-1.262.655-.275.38-.353.847-.233 1.403z"/>
                <path d="M160.698 177.44c-.57.021-1.016-.137-1.341-.474-.326-.336-.468-.789-.427-1.356.57-.022 1.016.136 1.342.473.325.337.467.789.426 1.357zM160.695 179.565c.566-.058.987-.276 1.262-.655.275-.38.353-.847.233-1.403-.566.058-.987.276-1.262.655-.275.38-.353.847-.233 1.403z"/>
                <path d="M160.846 179.555c-.57.021-1.016-.137-1.342-.474-.325-.337-.467-.789-.426-1.356.57-.022 1.016.136 1.341.473.326.337.468.789.427 1.357zM160.843 181.68c.566-.058.986-.276 1.262-.655.275-.38.353-.847.233-1.403-.566.058-.987.276-1.262.655-.276.379-.353.847-.233 1.403z"/>
                <path d="M160.993 181.67c-.568.02-1.015-.137-1.34-.474-.326-.337-.468-.789-.427-1.357.569-.021 1.016.137 1.341.474.326.336.468.789.426 1.356zM160.99 183.795c.567-.058.987-.277 1.263-.655.275-.38.353-.847.233-1.403-.566.058-.987.276-1.262.655-.276.379-.353.846-.234 1.403z"/>
                <path d="M161.141 183.784c-.568.022-1.015-.136-1.34-.473-.326-.337-.468-.79-.427-1.357.569-.021 1.016.137 1.341.473.326.337.468.79.426 1.357zM161.138 185.91c.567-.058.987-.277 1.263-.656.275-.379.353-.846.233-1.403-.567.058-.987.277-1.263.656-.275.379-.353.846-.233 1.403z"/>
                <path d="M161.29 185.899c-.57.021-1.017-.136-1.342-.473-.325-.337-.467-.79-.426-1.357.569-.021 1.016.136 1.341.473.325.337.467.79.426 1.357z"/>
            </g>
            <g fill-rule="nonzero">
                <path d="M156.763 166.12h1v19.716h-1z"/>
                <path d="M156.87 166.544c.352-.38.53-.804.53-1.272 0-.468-.178-.892-.53-1.272-.354.38-.53.804-.53 1.272 0 .468.176.892.53 1.272zM156.826 167.842c.57-.019 1.004-.207 1.305-.566.301-.359.411-.82.33-1.383-.568.018-1.003.207-1.304.565-.301.36-.411.82-.33 1.384z"/>
                <path d="M156.978 167.842c-.57-.019-1.004-.207-1.305-.566-.301-.359-.411-.82-.33-1.383.568.018 1.003.207 1.304.565.301.36.411.82.33 1.384zM156.826 169.962c.57-.019 1.004-.207 1.305-.566.301-.359.411-.82.33-1.383-.568.018-1.003.207-1.304.565-.301.36-.411.82-.33 1.384z"/>
                <path d="M156.978 169.962c-.57-.019-1.004-.207-1.305-.566-.301-.359-.411-.82-.33-1.383.568.018 1.003.207 1.304.565.301.36.411.82.33 1.384zM156.826 172.082c.57-.019 1.004-.207 1.305-.566.301-.359.411-.82.33-1.383-.568.018-1.003.207-1.304.565-.301.36-.411.82-.33 1.384z"/>
                <path d="M156.978 172.082c-.57-.019-1.004-.207-1.305-.566-.301-.359-.411-.82-.33-1.383.568.018 1.003.207 1.304.565.301.36.411.82.33 1.384zM156.826 174.202c.57-.019 1.004-.207 1.305-.566.301-.359.411-.82.33-1.383-.568.018-1.003.207-1.304.565-.301.36-.411.82-.33 1.384z"/>
                <path d="M156.978 174.202c-.57-.019-1.004-.207-1.305-.566-.301-.359-.411-.82-.33-1.383.568.018 1.003.207 1.304.565.301.36.411.82.33 1.384zM156.826 176.322c.57-.019 1.004-.207 1.305-.566.301-.359.411-.82.33-1.383-.568.018-1.003.207-1.304.565-.301.36-.411.82-.33 1.384z"/>
                <path d="M156.978 176.322c-.57-.019-1.004-.207-1.305-.566-.301-.359-.411-.82-.33-1.383.568.018 1.003.207 1.304.565.301.36.411.82.33 1.384z"/>
            </g>
            <g fill-rule="nonzero">
                <path d="M153.006 172.509l.998.052-1.032 19.689-.998-.052z"/>
                <path d="M153.09 172.938c.372-.361.57-.775.595-1.243.025-.468-.13-.9-.463-1.298-.372.36-.571.775-.596 1.243-.024.467.13.9.463 1.298zM152.979 174.231c.569.012 1.013-.154 1.332-.496.32-.343.454-.798.403-1.364-.57-.012-1.014.154-1.333.496-.32.343-.454.797-.402 1.364z"/>
                <path d="M153.13 174.24c-.568-.049-.992-.26-1.274-.634-.282-.374-.368-.84-.257-1.399.567.048.991.26 1.273.634.282.374.368.84.258 1.398zM152.868 176.348c.569.012 1.013-.154 1.332-.496.32-.343.454-.797.403-1.364-.57-.012-1.014.154-1.333.496-.32.343-.454.797-.402 1.364z"/>
                <path d="M153.019 176.356c-.567-.048-.992-.259-1.274-.633-.282-.374-.368-.84-.257-1.399.567.049.991.26 1.273.634.282.374.368.84.258 1.398zM152.757 178.465c.569.012 1.013-.154 1.332-.496.32-.343.454-.797.403-1.364-.57-.012-1.014.154-1.333.496-.32.343-.454.798-.402 1.364z"/>
                <path d="M152.908 178.473c-.567-.048-.992-.259-1.274-.633-.282-.374-.367-.84-.257-1.398.567.048.991.259 1.273.633.282.374.368.84.258 1.398zM152.646 180.582c.569.012 1.013-.154 1.332-.496.32-.343.454-.797.403-1.364-.57-.012-1.014.154-1.333.496-.32.343-.454.798-.402 1.364z"/>
                <path d="M152.797 180.59c-.567-.048-.992-.259-1.274-.633-.282-.374-.367-.84-.257-1.398.567.048.991.259 1.273.633.282.374.368.84.258 1.398zM152.535 182.7c.569.011 1.013-.154 1.332-.497.32-.342.454-.797.403-1.364-.57-.011-1.014.154-1.333.497-.32.342-.453.797-.402 1.364z"/>
                <path d="M152.686 182.708c-.567-.049-.992-.26-1.274-.634-.282-.374-.367-.84-.257-1.398.567.048.991.259 1.273.633.282.374.368.84.258 1.399z"/>
            </g>
            <g fill-rule="nonzero">
                <path d="M149.357 167.185h1V186.9h-1z"/>
                <path d="M149.463 167.609c.354-.38.53-.804.53-1.272 0-.469-.176-.893-.53-1.272-.353.38-.53.803-.53 1.272 0 .468.177.892.53 1.272zM149.42 168.906c.57-.018 1.004-.207 1.305-.565.301-.36.411-.82.33-1.384-.568.019-1.003.207-1.304.566-.301.359-.411.82-.33 1.383z"/>
                <path d="M149.572 168.906c-.57-.018-1.004-.207-1.305-.565-.301-.36-.411-.82-.33-1.384.568.019 1.003.207 1.304.566.301.359.411.82.33 1.383zM149.42 171.026c.57-.018 1.004-.207 1.305-.565.301-.36.411-.82.33-1.384-.568.019-1.003.207-1.304.566-.301.359-.411.82-.33 1.383z"/>
                <path d="M149.572 171.026c-.57-.018-1.004-.207-1.305-.565-.301-.36-.411-.82-.33-1.384.568.019 1.003.207 1.304.566.301.359.411.82.33 1.383zM149.42 173.146c.57-.018 1.004-.207 1.305-.565.301-.36.411-.82.33-1.384-.568.019-1.003.207-1.304.566-.301.359-.411.82-.33 1.383z"/>
                <path d="M149.572 173.146c-.57-.018-1.004-.207-1.305-.565-.301-.36-.411-.82-.33-1.384.568.019 1.003.207 1.304.566.301.359.411.82.33 1.383zM149.42 175.266c.57-.018 1.004-.207 1.305-.565.301-.36.411-.82.33-1.384-.568.019-1.003.207-1.304.566-.301.359-.411.82-.33 1.383z"/>
                <path d="M149.572 175.266c-.57-.018-1.004-.207-1.305-.565-.301-.36-.411-.82-.33-1.384.568.019 1.003.207 1.304.566.301.359.411.82.33 1.383zM149.42 177.386c.57-.018 1.004-.207 1.305-.565.301-.36.411-.82.33-1.384-.568.019-1.003.207-1.304.566-.301.359-.411.82-.33 1.383z"/>
                <path d="M149.572 177.386c-.57-.018-1.004-.207-1.305-.565-.301-.36-.411-.82-.33-1.384.568.019 1.003.207 1.304.566.301.359.411.82.33 1.383z"/>
            </g>
            <g fill-rule="nonzero">
                <path d="M145.552 172.544l.998-.07 1.375 19.668-.998.07z"/>
                <path d="M145.687 172.96c.326-.404.473-.84.44-1.307-.032-.467-.238-.877-.617-1.232-.326.404-.473.84-.44 1.306.033.468.238.878.617 1.232zM145.735 174.257c.566-.058.987-.277 1.262-.656.276-.378.353-.846.234-1.402-.567.057-.987.276-1.263.655-.275.379-.353.846-.233 1.403z"/>
                <path d="M145.886 174.246c-.569.022-1.016-.136-1.341-.473-.325-.337-.467-.79-.426-1.357.569-.021 1.016.136 1.341.473.325.337.467.79.426 1.357zM145.883 176.372c.566-.058.987-.277 1.262-.656.276-.379.353-.846.233-1.403-.566.058-.987.277-1.262.656s-.353.846-.233 1.403z"/>
                <path d="M146.034 176.361c-.569.021-1.016-.136-1.341-.473-.325-.337-.468-.79-.426-1.357.568-.021 1.016.136 1.34.473.326.337.468.79.427 1.357zM146.031 178.486c.566-.058.987-.276 1.262-.655s.353-.846.233-1.403c-.566.058-.987.277-1.262.655-.275.38-.353.847-.233 1.403z"/>
                <path d="M146.182 178.476c-.569.021-1.016-.136-1.341-.473-.326-.337-.468-.79-.426-1.357.568-.022 1.015.136 1.34.473.326.337.468.79.427 1.357zM146.179 180.601c.566-.058.987-.276 1.262-.655s.353-.847.233-1.403c-.566.058-.987.276-1.262.655-.275.38-.353.847-.233 1.403z"/>
                <path d="M146.33 180.59c-.569.022-1.016-.136-1.341-.473-.326-.336-.468-.789-.426-1.356.568-.022 1.015.136 1.34.473.326.337.468.789.427 1.357zM146.327 182.716c.566-.058.987-.276 1.262-.655.275-.38.353-.847.233-1.403-.566.058-.987.276-1.262.655s-.353.847-.233 1.403z"/>
                <path d="M146.478 182.705c-.57.022-1.016-.136-1.341-.473-.326-.337-.468-.789-.427-1.357.57-.02 1.016.137 1.342.474.325.337.467.789.426 1.356z"/>
            </g>
            <g fill-rule="nonzero">
                <path d="M141.951 168.249h1v19.716h-1z"/>
                <path d="M142.057 168.673c.354-.38.53-.804.53-1.272 0-.468-.176-.892-.53-1.272-.353.38-.53.804-.53 1.272 0 .468.177.892.53 1.272zM142.015 169.97c.569-.018 1.003-.206 1.305-.565.3-.359.41-.82.33-1.383-.569.018-1.004.207-1.305.565-.3.36-.411.82-.33 1.384z"/>
                <path d="M142.166 169.97c-.569-.018-1.004-.206-1.305-.565-.3-.359-.411-.82-.33-1.383.569.018 1.003.207 1.305.565.3.36.41.82.33 1.384zM142.015 172.09c.569-.018 1.003-.206 1.305-.565.3-.359.41-.82.33-1.383-.569.018-1.004.207-1.305.565-.3.36-.411.82-.33 1.384z"/>
                <path d="M142.166 172.09c-.569-.018-1.004-.206-1.305-.565-.3-.359-.411-.82-.33-1.383.569.018 1.003.207 1.305.565.3.36.41.82.33 1.384zM142.015 174.21c.569-.018 1.003-.206 1.305-.565.3-.359.41-.82.33-1.383-.569.018-1.004.207-1.305.565-.3.36-.411.82-.33 1.384z"/>
                <path d="M142.166 174.21c-.569-.018-1.004-.206-1.305-.565-.3-.359-.411-.82-.33-1.383.569.018 1.003.207 1.305.565.3.36.41.82.33 1.384zM142.015 176.33c.569-.018 1.003-.206 1.305-.565.3-.359.41-.82.33-1.383-.569.018-1.004.207-1.305.565-.3.36-.411.82-.33 1.384z"/>
                <path d="M142.166 176.33c-.569-.018-1.004-.206-1.305-.565-.3-.359-.411-.82-.33-1.383.569.018 1.003.207 1.305.565.3.36.41.82.33 1.384zM142.015 178.45c.569-.018 1.003-.206 1.305-.565.3-.359.41-.82.33-1.383-.569.018-1.004.207-1.305.565-.3.36-.411.82-.33 1.384z"/>
                <path d="M142.166 178.45c-.569-.018-1.004-.206-1.305-.565-.3-.359-.411-.82-.33-1.383.569.018 1.003.207 1.305.565.3.36.41.82.33 1.384z"/>
            </g>
            <g fill-rule="nonzero">
                <path d="M138.036 170.376l1 .035-.689 19.704-1-.035z"/>
                <path d="M138.127 170.804c.366-.367.558-.785.574-1.253.016-.468-.145-.898-.485-1.29-.367.367-.558.785-.574 1.253-.017.468.145.898.485 1.29zM138.039 172.1c.569 0 1.01-.173 1.324-.52.313-.349.44-.806.378-1.371-.569-.002-1.01.171-1.324.52-.313.347-.44.804-.378 1.37z"/>
                <path d="M138.19 172.104c-.568-.038-.996-.241-1.284-.61-.289-.37-.383-.834-.282-1.394.568.038.996.241 1.284.61.288.37.382.834.282 1.394zM137.965 174.218c.57.001 1.01-.172 1.324-.52.313-.348.44-.805.378-1.37-.569-.002-1.01.17-1.324.519-.313.348-.44.805-.378 1.37z"/>
                <path d="M138.116 174.223c-.568-.038-.996-.242-1.284-.61-.289-.37-.383-.834-.282-1.395.568.039.996.242 1.284.611.288.37.382.834.282 1.394zM137.89 176.337c.57.001 1.011-.172 1.325-.52.313-.348.44-.805.378-1.371-.569-.002-1.01.172-1.324.52-.313.348-.44.805-.378 1.37z"/>
                <path d="M138.042 176.342c-.568-.038-.996-.242-1.284-.611-.289-.369-.383-.834-.282-1.394.568.038.996.242 1.284.61.288.37.382.835.282 1.395zM137.817 178.455c.57.002 1.01-.171 1.324-.52.313-.348.44-.804.378-1.37-.569-.002-1.01.171-1.324.52-.313.347-.44.804-.378 1.37z"/>
                <path d="M137.968 178.46c-.568-.038-.996-.241-1.284-.61-.289-.37-.383-.834-.282-1.394.568.038.996.242 1.284.61.288.37.382.834.282 1.395zM137.743 180.574c.57.002 1.01-.172 1.324-.52.313-.348.44-.805.378-1.37-.569-.002-1.01.171-1.324.52-.313.347-.44.804-.378 1.37z"/>
                <path d="M137.894 180.58c-.568-.039-.996-.243-1.284-.612-.289-.369-.383-.833-.282-1.393.568.038.996.241 1.284.61.289.37.382.834.282 1.394z"/>
            </g>
            <g fill-rule="nonzero">
                <path d="M133.488 172.507h1v19.716h-1z"/>
                <path d="M133.594 172.931c.353-.38.53-.804.53-1.272 0-.468-.177-.892-.53-1.272-.354.38-.53.804-.53 1.272 0 .468.176.892.53 1.272zM133.55 174.229c.57-.019 1.005-.207 1.306-.566.3-.359.41-.82.33-1.383-.569.018-1.004.207-1.305.566-.3.358-.41.82-.33 1.383z"/>
                <path d="M133.702 174.229c-.569-.019-1.004-.207-1.305-.566-.3-.359-.41-.82-.33-1.383.569.018 1.004.207 1.305.566.3.358.41.82.33 1.383zM133.55 176.349c.57-.019 1.005-.207 1.306-.566.3-.359.41-.82.33-1.383-.569.018-1.004.207-1.305.566-.3.358-.41.82-.33 1.383z"/>
                <path d="M133.702 176.349c-.569-.019-1.004-.207-1.305-.566-.3-.359-.41-.82-.33-1.383.569.018 1.004.207 1.305.566.3.358.41.82.33 1.383zM133.55 178.469c.57-.019 1.005-.207 1.306-.566.3-.359.41-.82.33-1.383-.569.018-1.004.207-1.305.566-.3.358-.41.82-.33 1.383z"/>
                <path d="M133.702 178.469c-.569-.019-1.004-.207-1.305-.566-.3-.359-.41-.82-.33-1.383.569.018 1.004.207 1.305.566.3.358.41.82.33 1.383zM133.55 180.589c.57-.019 1.005-.207 1.306-.566.3-.359.41-.82.33-1.383-.569.018-1.004.207-1.305.566-.3.358-.41.82-.33 1.383z"/>
                <path d="M133.702 180.589c-.569-.019-1.004-.207-1.305-.566-.3-.359-.41-.82-.33-1.383.569.018 1.004.207 1.305.566.3.358.41.82.33 1.383zM133.55 182.709c.57-.019 1.005-.207 1.306-.566.3-.359.41-.82.33-1.383-.569.018-1.004.207-1.305.566-.3.358-.41.82-.33 1.383z"/>
                <path d="M133.702 182.709c-.569-.019-1.004-.207-1.305-.566-.3-.359-.41-.82-.33-1.383.569.018 1.004.207 1.305.566.3.358.41.82.33 1.383z"/>
            </g>
            <g fill-rule="nonzero">
                <path d="M129.73 170.38l.999.052-1.032 19.689-.999-.052z"/>
                <path d="M129.814 170.809c.373-.361.571-.775.596-1.243.024-.468-.13-.9-.463-1.298-.373.36-.571.775-.596 1.243-.024.467.13.9.463 1.298zM129.703 172.102c.57.012 1.013-.154 1.333-.496.32-.343.453-.798.402-1.364-.569-.012-1.013.154-1.332.496-.32.343-.454.797-.403 1.364z"/>
                <path d="M129.854 172.11c-.567-.048-.991-.259-1.273-.633-.282-.374-.368-.84-.258-1.399.567.048.992.26 1.274.633.281.375.367.84.257 1.4zM129.592 174.22c.57.01 1.013-.155 1.333-.497.32-.343.453-.797.402-1.364-.569-.012-1.013.154-1.332.496-.32.343-.454.797-.403 1.364z"/>
                <path d="M129.743 174.227c-.567-.048-.991-.259-1.273-.633-.282-.374-.368-.84-.258-1.399.567.048.992.26 1.274.634.282.374.367.84.257 1.398zM129.481 176.336c.57.012 1.013-.154 1.333-.496.32-.343.453-.797.402-1.364-.569-.012-1.013.154-1.332.496-.32.343-.454.798-.403 1.364z"/>
                <path d="M129.632 176.344c-.567-.048-.991-.259-1.273-.633-.282-.374-.368-.84-.258-1.398.567.048.992.259 1.274.633.282.374.367.84.257 1.398zM129.37 178.453c.57.012 1.014-.154 1.333-.496.32-.343.453-.797.402-1.364-.569-.012-1.013.154-1.332.496-.32.343-.454.798-.403 1.364z"/>
                <path d="M129.521 178.461c-.567-.048-.991-.259-1.273-.633-.282-.374-.368-.84-.258-1.398.567.048.992.259 1.274.633.282.374.367.84.257 1.398zM129.26 180.57c.568.012 1.013-.153 1.332-.496.32-.342.454-.797.402-1.364-.569-.012-1.013.154-1.332.497-.32.342-.454.797-.403 1.364z"/>
                <path d="M129.41 180.578c-.567-.048-.991-.259-1.273-.633-.282-.374-.368-.84-.258-1.398.567.048.992.259 1.274.633.282.374.368.84.257 1.398z"/>
            </g>
        </g>
    </g>
</svg>
